<?xml version="1.0" encoding="utf-8"?>
<svg viewBox="-73.628 -40.161 624.944 591.477" xmlns="http://www.w3.org/2000/svg" xmlns:bx="https://boxy-svg.com">
  <path fill="#020707" opacity="1.000000" stroke="none" d="M -62.086 293.899 C -62.086 292.51 -62.086 291.121 -61.735 289.395 C -60.431 287.956 -59.344 286.942 -58.544 285.738 C -51.838 275.646 -45.434 265.343 -38.464 255.439 C -23.472 234.136 -8.196 213.033 7.295 191.78 C 10.657 188.426 13.85 185.267 16.619 181.773 C 17.414 180.77 17.405 178.698 17.06 177.288 C 13.073 161 8.881 144.762 4.92 128.468 C 4.027 124.794 5.24 121.733 8.776 119.607 C 17.281 114.492 25.222 108.199 34.185 104.131 C 58.352 93.163 82.482 81.828 107.469 73.029 C 136.272 62.885 165.889 54.988 195.328 46.739 C 209.659 42.724 224.388 40.126 239.349 36.951 C 255.994 40.579 272.344 43.69 288.442 47.788 C 345.528 62.321 400.514 82.664 453.045 109.333 C 464.696 115.248 475.453 123.001 486.312 130.365 C 491.441 133.842 491.1 137.106 486.556 141.267 C 485.696 142.054 485.068 143.321 484.786 144.477 C 477.499 174.35 470.294 204.242 463.013 234.116 C 462.005 238.251 460.677 242.308 459.267 247.201 C 475.022 239.711 488.371 230.545 500.858 219.98 C 505.666 215.911 510.869 212.253 516.172 208.843 C 520.362 206.148 524.744 208.734 524.863 213.74 C 524.91 215.685 524.499 217.749 523.827 219.587 C 510.62 255.712 494.596 290.328 469.345 320.172 C 466.288 322.873 463.703 325.737 460.745 328.14 C 458.384 330.057 458.452 331.969 459.027 334.654 C 463.159 353.967 467.029 373.336 471.168 392.647 C 472.005 396.552 473.634 400.287 474.946 404.472 C 474.511 407.943 474.028 411.043 473.199 414.072 C 470.135 413.365 466.893 413.465 464.784 411.968 C 453.198 403.742 441.897 395.116 430.482 386.649 C 427.098 384.138 425.685 384.741 425.156 388.982 C 424.397 395.071 424.071 401.237 422.879 407.236 C 422.411 409.59 420.509 412.422 418.474 413.4 C 417.346 413.942 414.131 411.494 412.656 409.726 C 406.65 402.522 400.953 395.06 395.034 387.557 C 391.342 392.161 388.498 396.246 385.119 399.827 C 371.629 414.122 355.193 424.473 338.006 433.541 C 306.222 450.311 271.881 459.16 236.682 465.15 C 231.375 466.054 226.123 467.283 220.431 468.326 C 219.186 468.318 218.348 468.283 217.526 468.382 C 192.175 471.423 166.743 473.373 141.283 470.601 C 131.467 469.533 121.36 467.759 112.279 464.092 C 97.99 458.321 93.749 444.929 100.397 431.054 C 102.817 426.004 105.92 421.281 108.767 416.311 C 101.075 410.712 93.406 405.131 85.737 399.549 C 88.079 405.877 90.964 411.574 94.082 417.14 C 95.691 420.011 96.522 422.852 94.085 425.405 C 91.482 428.132 88.318 427.589 85.424 425.692 C 74.838 418.759 64.227 411.861 53.777 404.727 C 50.625 402.575 48.105 399.427 51.049 395.469 C 53.964 391.551 57.381 393.062 60.663 395.359 C 64.868 398.301 69.142 401.143 73.386 404.028 C 73.674 403.734 73.962 403.44 74.249 403.146 C 70.157 394.389 66.065 385.631 61.887 376.691 C 60.462 377.696 59.494 378.341 58.566 379.039 C 38.05 394.473 18.263 410.751 0.307 429.167 C -0.859 430.363 -2.635 430.963 -4.127 431.84 C -4.624 430.233 -5.668 428.576 -5.526 427.027 C -4.771 418.769 -4.343 410.408 -2.665 402.318 C 5.878 361.127 21.886 322.984 45.414 287.794 C 48.278 284.672 52.646 282.405 51.309 277.515 C 49.086 269.383 46.454 261.361 43.711 252.364 C 38.717 253.35 33.61 254.359 28.066 255.47 C 22.836 256.909 17.922 257.917 13.27 259.633 C -8.704 267.739 -28.215 280.357 -47.511 293.321 C -55.089 298.412 -55.023 298.509 -62.086 293.899 M 492.538 263.073 C 497.495 252.503 502.451 241.933 507.408 231.364 C 499.416 236.099 492.55 241.629 485.082 246.168 C 472.246 253.97 459.037 261.159 445.955 268.554 C 445.735 268.678 445.142 268.143 444.579 267.178 C 442.688 263.007 442.686 258.915 444.65 254.696 C 445.691 252.459 446.232 249.977 446.896 247.577 C 455.929 214.889 464.875 182.176 474.001 149.514 C 477.342 137.555 477.533 137.606 466.931 130.821 C 445.379 117.027 421.897 107.138 398.491 97.117 C 349.984 76.348 299.357 62.186 248.357 49.217 C 247.021 48.877 245.557 49.04 244.209 48.971 C 248.067 117.492 259.525 184.422 270.755 252.074 C 274.505 248.327 276.514 245.358 275.921 240.586 C 274.093 225.885 272.853 211.112 271.337 196.372 C 270.605 189.254 269.647 182.157 269.03 175.03 C 268.737 171.637 269.785 168.563 273.706 167.899 C 277.074 167.329 278.938 169.235 279.853 172.384 C 287.824 199.826 295.606 227.326 303.918 254.664 C 307.821 267.501 312.762 280.023 317.128 292.391 C 330.632 291.344 343.547 289.832 356.495 289.455 C 376.637 288.87 396.801 289.003 416.956 288.957 C 421.089 288.948 423.668 291.224 423.313 295.553 C 422.95 299.985 419.87 301.166 415.847 300.949 C 410.7 300.67 405.545 300.41 400.392 300.381 C 379.898 300.269 359.403 300.342 338.911 300.14 C 332.564 300.077 326.223 299.359 318.796 298.869 C 321.486 304.364 323.671 308.965 325.984 313.501 C 327.492 316.457 327.343 319.513 324.496 320.899 C 322.558 321.843 318.522 321.884 317.436 320.611 C 310.944 313.007 301.886 310.313 293.084 307.641 C 283.539 304.744 273.57 303.242 263.216 301.009 C 263.216 303.739 263.166 304.883 263.224 306.023 C 263.891 319.328 265.127 332.634 265.093 345.937 C 265.062 358.22 264.046 370.54 262.725 382.764 C 262.075 388.77 259.524 394.726 252.896 396.65 C 246.599 398.478 241.1 395.488 237.367 390.842 C 232.53 384.823 228.795 377.928 224.4 371.539 C 223.114 369.669 221.398 367.322 219.498 366.897 C 218.055 366.575 215.636 368.63 214.296 370.184 C 208.425 376.989 202.812 384.016 197.058 390.924 C 194.384 394.134 191.573 395.587 187.145 393.321 C 182.641 391.016 180.547 393.057 180.533 398.121 C 180.515 404.597 180.629 411.165 179.611 417.521 C 178.351 425.39 172.049 427.35 166.078 422.182 C 163.697 420.122 161.463 417.817 159.509 415.35 C 148.074 400.912 138.533 385.304 131.956 368.076 C 129.09 360.569 124.73 354.338 119.353 348.544 C 116.131 345.072 113.167 343.768 108.849 347.813 C 104.392 350.283 99.936 352.752 95.282 355.332 C 96.244 357.359 96.91 358.858 97.655 360.316 C 105.52 375.693 113.205 391.167 121.371 406.382 C 124.519 412.249 124.682 416.782 120.087 422.114 C 116.138 426.696 113.059 432.198 110.414 437.687 C 107.402 443.936 109.292 449.015 115.3 452.461 C 117.999 454.01 121.023 455.416 124.054 455.88 C 133.559 457.336 143.136 458.312 153.615 459.754 C 181.001 460.765 208.166 458.342 235.148 453.957 C 270.443 448.222 304.758 439.144 336.417 421.91 C 354.619 412.001 371.874 400.808 384.946 384.196 C 387.426 381.044 387.961 378.621 385.655 375.094 C 383.783 372.232 382.927 368.705 381.723 364.768 C 382.736 360.657 384.924 363.387 385.956 364.383 C 390.138 368.418 394.182 372.617 398.031 376.973 C 403.013 382.613 407.76 388.46 413.219 394.942 C 414.145 388.293 415.305 382.768 415.581 377.199 C 415.871 371.353 418.234 368.226 424.64 368.552 C 422.151 362.049 419.84 356.01 417.384 349.181 C 414.805 342.178 412.311 335.142 409.609 328.187 C 408.432 325.158 409.162 323.014 411.166 320.514 C 421.341 307.819 431.294 294.948 441.926 281.929 C 443.846 281.968 445.765 282.007 448.052 282.665 C 448.721 283.776 449.701 284.808 450.009 286.011 C 452.297 294.952 454.441 303.93 456.667 312.887 C 456.849 313.618 457.299 314.281 457.942 315.656 C 472.177 299.645 483.193 282.29 492.538 263.073 M 65.813 315.904 C 62.667 308.509 59.521 301.114 55.988 292.808 C 30.622 329.304 15.798 369.447 4.023 411.473 C 11.65 404.192 19.277 396.912 27.529 389.471 C 45.077 375.898 62.625 362.326 80.337 348.626 C 75.708 338.367 70.797 327.484 65.813 315.904 M 40.535 158.001 C 43.245 156.069 46.03 154.234 48.653 152.189 C 62.06 141.738 77.062 139.34 93.432 142.819 C 117.063 147.842 138.274 158.481 158.602 170.982 C 197.023 194.608 231.97 222.825 265.48 252.889 C 266.733 254.013 268.052 255.063 269.87 256.593 C 269.87 255.108 269.977 254.606 269.855 254.168 C 265.034 236.909 258.976 219.889 255.602 202.353 C 248.163 163.693 241.93 124.797 235.546 85.941 C 234.042 76.789 233.886 67.415 233.195 57.395 C 233.195 54.994 233.195 52.593 233.195 49.976 C 178.162 60.344 125.437 76.005 74.593 97.532 C 55.526 105.605 37.484 116.109 19.064 125.679 C 17.631 126.423 15.851 128.682 16.025 130.002 C 17.924 144.449 20.18 158.849 22.434 173.896 C 28.598 168.36 34.232 163.302 40.535 158.001 M 72.967 308.749 C 78.558 320.585 84.149 332.421 89.887 344.567 C 95.276 341.508 100.13 338.753 105.254 335.845 C 98.455 327.92 90.07 321.768 86.448 311.858 C 88.253 312.251 89.703 312.985 90.956 313.969 C 96.849 318.598 102.935 323.025 108.457 328.067 C 111.839 331.154 114.358 331.241 118.446 329.274 C 159.909 309.325 202.55 293.164 249.093 290.038 C 250.386 289.951 252.182 289.195 252.774 288.184 C 256.7 281.476 260.362 274.614 264.265 267.518 C 252.989 257.764 242.414 247.802 230.998 238.923 C 211.601 223.838 191.674 209.436 171.82 194.084 C 148.789 178.083 124.866 163.89 97.576 156.151 C 80.762 151.382 65.335 152.741 51.699 164.652 C 48.57 167.385 44.847 169.515 42.026 172.514 C 31.211 184.017 19.818 195.117 10.188 207.564 C -5.016 227.216 -18.974 247.832 -33.459 268.041 C -33.191 268.253 -32.924 268.465 -32.656 268.678 C -20.171 262.376 -7.687 256.075 5.56 249.855 C 18.841 244.666 32.698 241.866 46.841 240.956 C 70.068 239.463 93.016 242.183 115.821 246.513 C 119.769 247.263 122.046 249.164 121.773 253.056 C 121.513 256.769 118.925 258.191 115.23 258.506 C 110.631 258.898 106.084 259.891 100.781 260.702 C 86.106 264.792 74.434 273.648 63.901 284.202 C 63.09 285.014 62.873 287.28 63.388 288.411 C 66.4 295.03 69.712 301.512 72.967 308.749 M 235.995 316.466 C 238.667 312.116 241.338 307.766 244.631 302.405 C 201.032 306.943 161.823 321.46 122.994 340.24 C 143.957 356.575 164.159 372.192 186.593 384.34 C 196.521 375.517 217.085 347.249 235.995 316.466 M 436.226 376.998 C 443.909 382.74 451.593 388.482 459.782 394.603 C 459.782 393.135 459.897 392.472 459.766 391.863 C 454.055 365.428 448.304 339.003 442.632 312.561 C 442.229 310.684 442.263 308.683 442.321 306.746 C 442.398 304.15 442.695 301.56 442.973 298.011 C 434.48 307.241 427.103 315.546 419.356 323.49 C 417.23 325.672 417.003 327.168 417.984 329.898 C 422.972 343.782 427.655 357.776 432.574 371.686 C 433.2 373.458 434.583 374.962 436.226 376.998 M 252.813 325.536 C 252.521 321.918 252.229 318.3 251.884 314.028 C 242.83 327.937 234.304 340.991 225.86 354.097 C 225.214 355.099 224.513 356.763 224.909 357.631 C 228.96 366.502 231.984 376.106 239.753 382.649 C 242.227 384.732 245.793 385.518 248.86 386.898 C 249.875 384.007 251.678 381.143 251.776 378.221 C 252.353 360.983 252.534 343.732 252.813 325.536 M 269.728 282.258 C 268.421 284.666 267.114 287.074 266.077 288.985 C 279.89 292.221 293.301 295.364 306.779 298.522 C 301.098 282.468 295.308 266.107 289.519 249.746 C 288.175 251.025 287.833 252.112 287.983 253.126 C 289.097 260.658 290.636 268.146 291.306 275.714 C 291.532 278.264 290.332 281.719 288.531 283.482 C 286.061 285.899 283.025 284.217 280.577 282.065 C 278.264 280.031 275.787 278.185 273.199 276.109 C 272.008 278.168 271.017 279.883 269.728 282.258 M 143.65 378.668 C 150.773 391.296 158.916 403.127 170.111 412.866 C 170.487 404.813 170.256 397.059 169.599 389.341 C 169.45 387.58 168.237 385.39 166.816 384.343 C 158.665 378.335 150.321 372.587 141.996 366.818 C 140.634 365.874 139.043 365.26 136.335 363.863 C 139.088 369.517 141.166 373.784 143.65 378.668 M 101.96 393.344 C 96.595 382.588 91.23 371.833 85.736 360.818 C 80.828 364.035 76.357 366.966 71.599 370.085 C 83.039 380.99 93.831 391.277 104.622 401.564 C 104.95 401.361 105.278 401.159 105.606 400.956 C 104.5 398.645 103.393 396.334 101.96 393.344 M 81.349 255.781 C 81.177 255.046 81.011 253.668 80.833 253.666 C 69.427 253.565 58.02 253.575 46.305 253.575 C 49.644 260.299 52.998 267.053 56.128 273.356 C 64.441 267.522 72.566 261.82 81.349 255.781 Z" bx:origin="0.652 0.737"/>
  <path fill="#0DDEFE" opacity="1.000000" stroke="none" d="M 441.325 282.138 C 431.294 294.948 421.341 307.819 411.166 320.514 C 409.162 323.014 408.432 325.158 409.609 328.187 C 412.311 335.142 414.805 342.178 417.052 349.549 C 412.055 350.864 409.597 353.893 408.811 358.418 C 408.006 363.049 407.28 367.693 406.404 373.034 C 405.341 371.782 404.755 371.223 404.321 370.563 C 397.105 359.578 390.15 348.411 382.63 337.639 C 376.452 328.791 369.689 320.344 363.003 311.863 C 361.097 309.445 358.353 307.601 355.162 309.676 C 351.737 311.903 352.538 315.178 354.044 318.13 C 357.368 324.649 360.665 331.199 364.38 337.496 C 369.943 346.93 375.856 356.157 381.621 365.472 C 382.927 368.705 383.783 372.232 385.655 375.094 C 387.961 378.621 387.426 381.044 384.946 384.196 C 371.874 400.808 354.619 412.001 336.417 421.91 C 304.758 439.144 270.443 448.222 235.148 453.957 C 208.166 458.342 181.001 460.765 153.083 459.302 C 149.466 457.325 146.251 456.014 143.317 454.239 C 128.245 445.118 126.886 431.585 139.723 419.387 C 141.482 417.715 143.283 416.087 145.094 414.412 C 143.51 411.97 142.137 409.893 140.804 407.791 C 128.663 388.636 118.227 368.593 109.5 347.66 C 113.167 343.768 116.131 345.072 119.353 348.544 C 124.73 354.338 129.09 360.569 131.956 368.076 C 138.533 385.304 148.074 400.912 159.509 415.35 C 161.463 417.817 163.697 420.122 166.078 422.182 C 172.049 427.35 178.351 425.39 179.611 417.521 C 180.629 411.165 180.515 404.597 180.533 398.121 C 180.547 393.057 182.641 391.016 187.145 393.321 C 191.573 395.587 194.384 394.134 197.058 390.924 C 202.812 384.016 208.425 376.989 214.296 370.184 C 215.636 368.63 218.055 366.575 219.498 366.897 C 221.398 367.322 223.114 369.669 224.4 371.539 C 228.795 377.928 232.53 384.823 237.367 390.842 C 241.1 395.488 246.599 398.478 252.896 396.65 C 259.524 394.726 262.075 388.77 262.725 382.764 C 264.046 370.54 265.062 358.22 265.093 345.937 C 265.127 332.634 263.891 319.328 263.224 306.023 C 263.166 304.883 263.216 303.739 263.216 301.009 C 273.57 303.242 283.539 304.744 293.084 307.641 C 301.886 310.313 310.944 313.007 317.436 320.611 C 318.522 321.884 322.558 321.843 324.496 320.899 C 327.343 319.513 327.492 316.457 325.984 313.501 C 323.671 308.965 321.486 304.364 318.796 298.869 C 326.223 299.359 332.564 300.077 338.911 300.14 C 359.403 300.342 379.898 300.269 400.392 300.381 C 405.545 300.41 410.7 300.67 415.847 300.949 C 419.87 301.166 422.95 299.985 423.313 295.553 C 423.668 291.224 421.089 288.948 416.956 288.957 C 396.801 289.003 376.637 288.87 356.495 289.455 C 343.547 289.832 330.632 291.344 317.128 292.391 C 312.762 280.023 307.821 267.501 303.918 254.664 C 295.606 227.326 287.824 199.826 279.853 172.384 C 278.938 169.235 277.074 167.329 273.706 167.899 C 269.785 168.563 268.737 171.637 269.03 175.03 C 269.647 182.157 270.605 189.254 271.337 196.372 C 272.853 211.112 274.093 225.885 275.921 240.586 C 276.514 245.358 274.505 248.327 270.755 252.074 C 259.525 184.422 248.067 117.492 244.209 48.971 C 245.557 49.04 247.021 48.877 248.357 49.217 C 299.357 62.186 349.984 76.348 398.491 97.117 C 421.897 107.138 445.379 117.027 466.931 130.821 C 477.533 137.606 477.342 137.555 474.001 149.514 C 464.875 182.176 455.929 214.889 446.896 247.577 C 446.232 249.977 445.691 252.459 444.65 254.696 C 442.686 258.915 442.688 263.007 444.382 267.788 C 443.231 272.978 442.278 277.558 441.325 282.138 M 279.64 420.146 C 266.697 430.563 253.967 441.415 235.46 440.976 C 236.945 445.435 240.324 445.832 243.269 445.369 C 248.812 444.499 254.487 443.518 259.666 441.467 C 273.794 435.872 285.692 426.846 296.306 416.049 C 297.774 414.556 299.492 413.058 301.389 412.279 C 314.442 406.921 327.827 402.298 340.592 396.339 C 349.393 392.23 358.197 387.324 365.53 381.055 C 377.27 371.019 375.421 358.629 361.583 352.023 C 352.798 347.83 343.376 344.729 333.961 342.164 C 322.705 339.097 322.978 339.669 320.268 350.836 C 313.748 377.704 299.959 400.469 279.64 420.146 Z" bx:origin="0.576 0.751"/>
  <path fill="#0DDFFE" opacity="1.000000" stroke="none" d="M 171.97 194.746 C 191.674 209.436 211.601 223.838 230.998 238.923 C 242.414 247.802 252.989 257.764 264.265 267.518 C 260.362 274.614 256.7 281.476 252.774 288.184 C 252.182 289.195 250.386 289.951 249.093 290.038 C 202.55 293.164 159.909 309.325 118.446 329.274 C 114.358 331.241 111.839 331.154 108.457 328.067 C 102.935 323.025 96.849 318.598 90.956 313.969 C 89.703 312.985 88.253 312.251 86.448 311.858 C 90.07 321.768 98.455 327.92 105.254 335.845 C 100.13 338.753 95.276 341.508 89.887 344.567 C 84.149 332.421 78.558 320.585 73.28 308.323 C 75.197 306.461 76.869 305.093 78.393 303.577 C 89.883 292.134 102.675 282.362 116.605 274.11 C 122.369 270.695 128.409 267.747 134.324 264.586 C 134.277 264.236 134.231 263.886 134.184 263.536 C 123.294 262.566 112.404 261.595 101.514 260.624 C 106.084 259.891 110.631 258.898 115.23 258.506 C 118.925 258.191 121.513 256.769 121.773 253.056 C 122.046 249.164 119.769 247.263 115.821 246.513 C 93.016 242.183 70.068 239.463 46.841 240.956 C 32.698 241.866 18.841 244.666 5.022 249.502 C 4.861 246.93 4.672 244.385 5.728 242.558 C 8.287 238.127 10.964 233.606 14.407 229.871 C 31.4 211.434 52.235 198.712 75.526 189.817 C 88.523 184.853 102.044 181.085 115.876 182.402 C 129.327 183.682 142.589 187.154 155.866 189.981 C 161.325 191.143 166.608 193.133 171.97 194.746 Z" bx:origin="1.217 1.08"/>
  <path fill="#0DDFFE" opacity="1.000000" stroke="none" d="M 233.11 58.142 C 233.886 67.415 234.042 76.789 235.546 85.941 C 241.93 124.797 248.163 163.693 255.602 202.353 C 258.976 219.889 265.034 236.909 269.855 254.168 C 269.977 254.606 269.87 255.108 269.87 256.593 C 268.052 255.063 266.733 254.013 265.48 252.889 C 231.97 222.825 197.023 194.608 158.602 170.982 C 138.274 158.481 117.063 147.842 93.432 142.819 C 77.062 139.34 62.06 141.738 48.653 152.189 C 46.03 154.234 43.245 156.069 40.133 157.725 C 39.003 155.078 38.751 152.405 37.467 150.389 C 31.74 141.396 35.312 133.267 43.109 128.786 C 47.71 126.142 52.547 123.885 57.376 121.667 C 85.488 108.75 113.575 95.595 144.119 89.39 C 170.306 84.069 196.66 79.552 222.977 74.891 C 230.586 73.544 231.708 72.626 232.025 64.89 C 232.118 62.629 232.734 60.391 233.11 58.142 Z" bx:origin="1.216 1.509"/>
  <path fill="#01FE9A" opacity="1.000000" stroke="none" d="M 473.199 414.072 C 466.535 456.377 438.307 491.571 395.718 503.999 C 367.698 512.176 339.573 511.012 311.425 504.951 C 279.34 498.042 249.506 485.443 221.071 468.594 C 226.123 467.283 231.375 466.054 236.682 465.15 C 271.881 459.16 306.222 450.311 338.006 433.541 C 355.193 424.473 371.629 414.122 385.119 399.827 C 388.498 396.246 391.342 392.161 395.034 387.557 C 400.953 395.06 406.65 402.522 412.656 409.726 C 414.131 411.494 417.346 413.942 418.474 413.4 C 420.509 412.422 422.411 409.59 422.879 407.236 C 424.071 401.237 424.397 395.071 425.156 388.982 C 425.685 384.741 427.098 384.138 430.482 386.649 C 441.897 395.116 453.198 403.742 464.784 411.968 C 466.893 413.465 470.135 413.365 473.199 414.072 Z" bx:origin="0.395 -0.221"/>
  <path fill="#01FD9A" opacity="1.000000" stroke="none" d="M 7.295 191.78 C 4.933 181.113 2.263 170.452 1.009 159.627 C -1.298 139.727 -1.073 119.81 2.784 100.008 C 12.461 50.323 45.875 15.092 96.567 6.761 C 132.03 0.932 166.097 7.195 199.295 19.257 C 212.673 24.118 225.465 30.592 238.731 36.61 C 224.388 40.126 209.659 42.724 195.328 46.739 C 165.889 54.988 136.272 62.885 107.469 73.029 C 82.482 81.828 58.352 93.163 34.185 104.131 C 25.222 108.199 17.281 114.492 8.776 119.607 C 5.24 121.733 4.027 124.794 4.92 128.468 C 8.881 144.762 13.073 161 17.06 177.288 C 17.405 178.698 17.414 180.77 16.619 181.773 C 13.85 185.267 10.657 188.426 7.295 191.78 Z" bx:origin="1.342 1.886"/>
  <path fill="#B3F5F5" opacity="1.000000" stroke="none" d="M 171.895 194.415 C 166.608 193.133 161.325 191.143 155.866 189.981 C 142.589 187.154 129.327 183.682 115.876 182.402 C 102.044 181.085 88.523 184.853 75.526 189.817 C 52.235 198.712 31.4 211.434 14.407 229.871 C 10.964 233.606 8.287 238.127 5.728 242.558 C 4.672 244.385 4.861 246.93 4.641 249.461 C -7.687 256.075 -20.171 262.376 -32.656 268.678 C -32.924 268.465 -33.191 268.253 -33.459 268.041 C -18.974 247.832 -5.016 227.216 10.188 207.564 C 19.818 195.117 31.211 184.017 42.026 172.514 C 44.847 169.515 48.57 167.385 51.699 164.652 C 65.335 152.741 80.762 151.382 97.576 156.151 C 124.866 163.89 148.789 178.083 171.895 194.415 Z" bx:origin="1.724 1.772"/>
  <path fill="#0DDDFD" opacity="1.000000" stroke="none" d="M 235.823 316.785 C 217.085 347.249 196.521 375.517 186.593 384.34 C 164.159 372.192 143.957 356.575 122.994 340.24 C 161.823 321.46 201.032 306.943 244.631 302.405 C 241.338 307.766 238.667 312.116 235.823 316.785 Z" bx:origin="1.625 0.673"/>
  <path fill="#B2F5F5" opacity="1.000000" stroke="none" d="M 233.153 57.769 C 232.734 60.391 232.118 62.629 232.025 64.89 C 231.708 72.626 230.586 73.544 222.977 74.891 C 196.66 79.552 170.306 84.069 144.119 89.39 C 113.575 95.595 85.488 108.75 57.376 121.667 C 52.547 123.885 47.71 126.142 43.109 128.786 C 35.312 133.267 31.74 141.396 37.467 150.389 C 38.751 152.405 39.003 155.078 39.797 157.846 C 34.232 163.302 28.598 168.36 22.434 173.896 C 20.18 158.849 17.924 144.449 16.025 130.002 C 15.851 128.682 17.631 126.423 19.064 125.679 C 37.484 116.109 55.526 105.605 74.593 97.532 C 125.437 76.005 178.162 60.344 233.195 49.976 C 233.195 52.593 233.195 54.994 233.153 57.769 Z" bx:origin="1.403 2.482"/>
  <path fill="#B2F5F5" opacity="1.000000" stroke="none" d="M 109.174 347.737 C 118.227 368.593 128.663 388.636 140.804 407.791 C 142.137 409.893 143.51 411.97 145.094 414.412 C 143.283 416.087 141.482 417.715 139.723 419.387 C 126.886 431.585 128.245 445.118 143.317 454.239 C 146.251 456.014 149.466 457.325 152.619 459.162 C 143.136 458.312 133.559 457.336 124.054 455.88 C 121.023 455.416 117.999 454.01 115.3 452.461 C 109.292 449.015 107.402 443.936 110.414 437.687 C 113.059 432.198 116.138 426.696 120.087 422.114 C 124.682 416.782 124.519 412.249 121.371 406.382 C 113.205 391.167 105.52 375.693 97.655 360.316 C 96.91 358.858 96.244 357.359 95.282 355.332 C 99.936 352.752 104.392 350.283 109.174 347.737 Z" bx:origin="3.93 0.088"/>
  <path fill="#0DDBFB" opacity="1.000000" stroke="none" d="M 435.92 376.794 C 434.583 374.962 433.2 373.458 432.574 371.686 C 427.655 357.776 422.972 343.782 417.984 329.898 C 417.003 327.168 417.23 325.672 419.356 323.49 C 427.103 315.546 434.48 307.241 442.973 298.011 C 442.695 301.56 442.398 304.15 442.321 306.746 C 442.263 308.683 442.229 310.684 442.632 312.561 C 448.304 339.003 454.055 365.428 459.766 391.863 C 459.897 392.472 459.782 393.135 459.782 394.603 C 451.593 388.482 443.909 382.74 435.92 376.794 Z" bx:origin="-2.283 0.617"/>
  <path fill="#B0F4F4" opacity="1.000000" stroke="none" d="M 26.905 389.631 C 19.277 396.912 11.65 404.192 4.023 411.473 C 15.798 369.447 30.622 329.304 55.988 292.808 C 59.521 301.114 62.667 308.509 65.582 316.478 C 50.035 334.465 36.573 353.092 28.903 375.233 C 27.347 379.724 27.526 384.816 26.905 389.631 Z" bx:origin="5.143 0.546"/>
  <path fill="#B1F5F5" opacity="1.000000" stroke="none" d="M 381.672 365.12 C 375.856 356.157 369.943 346.93 364.38 337.496 C 360.665 331.199 357.368 324.649 354.044 318.13 C 352.538 315.178 351.737 311.903 355.162 309.676 C 358.353 307.601 361.097 309.445 363.003 311.863 C 369.689 320.344 376.452 328.791 382.63 337.639 C 390.15 348.411 397.105 359.578 404.321 370.563 C 404.755 371.223 405.341 371.782 406.404 373.034 C 407.28 367.693 408.006 363.049 408.811 358.418 C 409.597 353.893 412.055 350.864 417.124 349.944 C 419.84 356.01 422.151 362.049 424.64 368.552 C 418.234 368.226 415.871 371.353 415.581 377.199 C 415.305 382.768 414.145 388.293 413.219 394.942 C 407.76 388.46 403.013 382.613 398.031 376.973 C 394.182 372.617 390.138 368.418 385.956 364.383 C 384.924 363.387 382.736 360.657 381.672 365.12 Z" bx:origin="-0.447 0.566"/>
  <path fill="#0EDEFD" opacity="1.000000" stroke="none" d="M 27.217 389.551 C 27.526 384.816 27.347 379.724 28.903 375.233 C 36.573 353.092 50.035 334.465 65.618 316.826 C 70.797 327.484 75.708 338.367 80.337 348.626 C 62.625 362.326 45.077 375.898 27.217 389.551 Z" bx:origin="5.524 0.56"/>
  <path fill="#B3F6F6" opacity="1.000000" stroke="none" d="M 101.147 260.663 C 112.404 261.595 123.294 262.566 134.184 263.536 C 134.231 263.886 134.277 264.236 134.324 264.586 C 128.409 267.747 122.369 270.695 116.605 274.11 C 102.675 282.362 89.883 292.134 78.393 303.577 C 76.869 305.093 75.197 306.461 73.258 307.968 C 69.712 301.512 66.4 295.03 63.388 288.411 C 62.873 287.28 63.09 285.014 63.901 284.202 C 74.434 273.648 86.106 264.792 101.147 260.663 Z" bx:origin="3.616 2.049"/>
  <path fill="#F3FCFC" opacity="1.000000" stroke="none" d="M 252.831 326.01 C 252.534 343.732 252.353 360.983 251.776 378.221 C 251.678 381.143 249.875 384.007 248.86 386.898 C 245.793 385.518 242.227 384.732 239.753 382.649 C 231.984 376.106 228.96 366.502 224.909 357.631 C 224.513 356.763 225.214 355.099 225.86 354.097 C 234.304 340.991 242.83 327.937 251.884 314.028 C 252.229 318.3 252.521 321.918 252.831 326.01 Z" bx:origin="3.418 0.598"/>
  <path fill="#B0F4F4" opacity="1.000000" stroke="none" d="M 441.625 282.034 C 442.278 277.558 443.231 272.978 444.453 268.157 C 445.142 268.143 445.735 268.678 445.955 268.554 C 459.037 261.159 472.246 253.97 485.082 246.168 C 492.55 241.629 499.416 236.099 507.408 231.364 C 502.451 241.933 497.495 252.503 491.926 263.426 C 477.674 269.219 464.028 274.643 450.407 280.13 C 449.405 280.534 448.588 281.397 447.685 282.047 C 445.765 282.007 443.846 281.968 441.625 282.034 Z" bx:origin="-1.839 2.49"/>
  <path fill="#0EDCFC" opacity="1.000000" stroke="none" d="M 447.868 282.356 C 448.588 281.397 449.405 280.534 450.407 280.13 C 464.028 274.643 477.674 269.219 491.68 263.638 C 483.193 282.29 472.177 299.645 457.942 315.656 C 457.299 314.281 456.849 313.618 456.667 312.887 C 454.441 303.93 452.297 294.952 450.009 286.011 C 449.701 284.808 448.721 283.776 447.868 282.356 Z" bx:origin="-2.904 1.806"/>
  <path fill="#02FB96" opacity="1.000000" stroke="none" d="M 469.345 320.172 C 471.974 335.009 475.202 349.815 476.332 364.778 C 477.299 377.586 475.862 390.576 475.193 403.793 C 473.634 400.287 472.005 396.552 471.168 392.647 C 467.029 373.336 463.159 353.967 459.027 334.654 C 458.452 331.969 458.384 330.057 460.745 328.14 C 463.703 325.737 466.288 322.873 469.345 320.172 Z" bx:origin="-7.685 0.447"/>
  <path fill="#0CD5F6" opacity="1.000000" stroke="none" d="M 269.877 281.927 C 271.017 279.883 272.008 278.168 273.199 276.109 C 275.787 278.185 278.264 280.031 280.577 282.065 C 283.025 284.217 286.061 285.899 288.531 283.482 C 290.332 281.719 291.532 278.264 291.306 275.714 C 290.636 268.146 289.097 260.658 287.983 253.126 C 287.833 252.112 288.175 251.025 289.519 249.746 C 295.308 266.107 301.098 282.468 306.779 298.522 C 293.301 295.364 279.89 292.221 266.077 288.985 C 267.114 287.074 268.421 284.666 269.877 281.927 Z" bx:origin="1.34 2.211"/>
  <path fill="#ECFAFA" opacity="1.000000" stroke="none" d="M 143.447 378.36 C 141.166 373.784 139.088 369.517 136.335 363.863 C 139.043 365.26 140.634 365.874 141.996 366.818 C 150.321 372.587 158.665 378.335 166.816 384.343 C 168.237 385.39 169.45 387.58 169.599 389.341 C 170.256 397.059 170.487 404.813 170.111 412.866 C 158.916 403.127 150.773 391.296 143.447 378.36 Z" bx:origin="5.428 -0.128"/>
  <path fill="#03FB95" opacity="1.000000" stroke="none" d="M 45.414 287.794 C 39.606 277.269 34.122 266.66 28.57 255.709 C 33.61 254.359 38.717 253.35 43.711 252.364 C 46.454 261.361 49.086 269.383 51.309 277.515 C 52.646 282.405 48.278 284.672 45.414 287.794 Z" bx:origin="12.706 2.97"/>
  <path fill="#0CD5F7" opacity="1.000000" stroke="none" d="M 102.123 393.684 C 103.393 396.334 104.5 398.645 105.606 400.956 C 105.278 401.159 104.95 401.361 104.622 401.564 C 93.831 391.277 83.039 380.99 71.599 370.085 C 76.357 366.966 80.828 364.035 85.736 360.818 C 91.23 371.833 96.595 382.588 102.123 393.684 Z" bx:origin="7.323 -0.079"/>
  <path fill="#0CD7F9" opacity="1.000000" stroke="none" d="M 81.02 255.949 C 72.566 261.82 64.441 267.522 56.128 273.356 C 52.998 267.053 49.644 260.299 46.305 253.575 C 58.02 253.575 69.427 253.565 80.833 253.666 C 81.011 253.668 81.177 255.046 81.02 255.949 Z" bx:origin="7.888 5.258"/>
  <path fill="#01080A" opacity="1.000000" stroke="none" d="M 279.905 419.911 C 299.959 400.469 313.748 377.704 320.268 350.836 C 322.978 339.669 322.705 339.097 333.961 342.164 C 343.376 344.729 352.798 347.83 361.583 352.023 C 375.421 358.629 377.27 371.019 365.53 381.055 C 358.197 387.324 349.393 392.23 340.592 396.339 C 327.827 402.298 314.442 406.921 301.389 412.279 C 299.492 413.058 297.774 414.556 296.306 416.049 C 285.692 426.846 273.794 435.872 259.666 441.467 C 254.487 443.518 248.812 444.499 243.269 445.369 C 240.324 445.832 236.945 445.435 235.46 440.976 C 253.967 441.415 266.697 430.563 279.905 419.911 M 323.341 374.733 C 318.765 383.284 314.189 391.834 309.18 401.194 C 321.317 395.576 332.814 390.254 344.31 384.932 C 344.219 384.534 344.129 384.136 344.039 383.737 C 339.098 383.498 334.158 383.258 329.218 383.019 C 337.403 377.873 346.218 375.695 355.326 375.164 C 361.469 374.805 365.104 370.468 363.447 363.942 C 356.019 364.433 348.545 364.928 341.071 365.422 C 340.843 364.74 340.616 364.059 340.388 363.377 C 344.122 361.152 347.857 358.926 352.243 356.313 C 344.659 353.879 337.642 351.627 331.102 349.528 C 328.469 358.197 326.064 366.114 323.341 374.733 Z" bx:origin="0.618 0.162"/>
  <path fill="#A9EFEF" opacity="1.000000" stroke="none" d="M 323.5 374.382 C 326.064 366.114 328.469 358.197 331.102 349.528 C 337.642 351.627 344.659 353.879 352.243 356.313 C 347.857 358.926 344.122 361.152 340.388 363.377 C 340.616 364.059 340.843 364.74 341.071 365.422 C 348.545 364.928 356.019 364.433 363.447 363.942 C 365.104 370.468 361.469 374.805 355.326 375.164 C 346.218 375.695 337.403 377.873 329.218 383.019 C 334.158 383.258 339.098 383.498 344.039 383.737 C 344.129 384.136 344.219 384.534 344.31 384.932 C 332.814 390.254 321.317 395.576 309.18 401.194 C 314.189 391.834 318.765 383.284 323.5 374.382 Z" bx:origin="0.21 0.156"/>
</svg>