<?xml version="1.0" encoding="UTF-8" standalone="no"?>
<!-- Created with Inkscape (http://www.inkscape.org/) -->

<svg
   xmlns:bx="https://boxy-svg.com"
   xmlns:dc="http://purl.org/dc/elements/1.1/"
   xmlns:cc="http://creativecommons.org/ns#"
   xmlns:rdf="http://www.w3.org/1999/02/22-rdf-syntax-ns#"
   xmlns:svg="http://www.w3.org/2000/svg"
   xmlns="http://www.w3.org/2000/svg"
   xmlns:sodipodi="http://sodipodi.sourceforge.net/DTD/sodipodi-0.dtd"
   xmlns:inkscape="http://www.inkscape.org/namespaces/inkscape"
   width="510"
   height="510"
   viewBox="0 0 507.99999 508.00001"
   version="1.1"
   id="svg8"
   inkscape:version="0.92.4 (5da689c313, 2019-01-14)"
   sodipodi:docname="w.svg">
  <defs
     id="defs2" />
  <sodipodi:namedview
     id="base"
     pagecolor="#ffffff"
     bordercolor="#666666"
     borderopacity="1.0"
     inkscape:pageopacity="0.0"
     inkscape:pageshadow="2"
     inkscape:zoom="0.35"
     inkscape:cx="993.49299"
     inkscape:cy="852.67045"
     inkscape:document-units="mm"
     inkscape:current-layer="g4758"
     showgrid="false"
     units="px"
     inkscape:window-width="1920"
     inkscape:window-height="1051"
     inkscape:window-x="-9"
     inkscape:window-y="-9"
     inkscape:window-maximized="1" />
  <metadata
     id="metadata5">
    <rdf:RDF>
      <cc:Work
         rdf:about="">
        <dc:format>image/svg+xml</dc:format>
        <dc:type
           rdf:resource="http://purl.org/dc/dcmitype/StillImage" />
        <dc:title></dc:title>
      </cc:Work>
    </rdf:RDF>
  </metadata>
  <g
     inkscape:label="Layer 1"
     inkscape:groupmode="layer"
     id="layer1"
     transform="translate(0,211.00002)">
    <g
       id="g4758"
       transform="matrix(1.0020608,0,0,1.0020608,4.0029323,-208.53741)">
      <g
         id="g4846"
         transform="matrix(0.84498516,0,0,0.84498516,53.961545,38.983154)">
        <path
           id="path4760"
           bx:origin="0.652 0.737"
           d="m -62.086,293.899 c 0,-1.389 0,-2.778 0.351,-4.504 1.304,-1.439 2.391,-2.453 3.191,-3.657 6.706,-10.092 13.11,-20.395 20.08,-30.299 14.992,-21.303 30.268,-42.406 45.759,-63.659 3.362,-3.354 6.555,-6.513 9.324,-10.007 0.795,-1.003 0.786,-3.075 0.441,-4.485 C 13.073,161 8.881,144.762 4.92,128.468 c -0.893,-3.674 0.32,-6.735 3.856,-8.861 8.505,-5.115 16.446,-11.408 25.409,-15.476 24.167,-10.968 48.297,-22.303 73.284,-31.102 28.803,-10.144 58.42,-18.041 87.859,-26.29 14.331,-4.015 29.06,-6.613 44.021,-9.788 16.645,3.628 32.995,6.739 49.093,10.837 57.086,14.533 112.072,34.876 164.603,61.545 11.651,5.915 22.408,13.668 33.267,21.032 5.129,3.477 4.788,6.741 0.244,10.902 -0.86,0.787 -1.488,2.054 -1.77,3.21 -7.287,29.873 -14.492,59.765 -21.773,89.639 -1.008,4.135 -2.336,8.192 -3.746,13.085 15.755,-7.49 29.104,-16.656 41.591,-27.221 4.808,-4.069 10.011,-7.727 15.314,-11.137 4.19,-2.695 8.572,-0.109 8.691,4.897 0.047,1.945 -0.364,4.009 -1.036,5.847 -13.207,36.125 -29.231,70.741 -54.482,100.585 -3.057,2.701 -5.642,5.565 -8.6,7.968 -2.361,1.917 -2.293,3.829 -1.718,6.514 4.132,19.313 8.002,38.682 12.141,57.993 0.837,3.905 2.466,7.64 3.778,11.825 -0.435,3.471 -0.918,6.571 -1.747,9.6 -3.064,-0.707 -6.306,-0.607 -8.415,-2.104 -11.586,-8.226 -22.887,-16.852 -34.302,-25.319 -3.384,-2.511 -4.797,-1.908 -5.326,2.333 -0.759,6.089 -1.085,12.255 -2.277,18.254 -0.468,2.354 -2.37,5.186 -4.405,6.164 -1.128,0.542 -4.343,-1.906 -5.818,-3.674 -6.006,-7.204 -11.703,-14.666 -17.622,-22.169 -3.692,4.604 -6.536,8.689 -9.915,12.27 -13.49,14.295 -29.926,24.646 -47.113,33.714 -31.784,16.77 -66.125,25.619 -101.324,31.609 -5.307,0.904 -10.559,2.133 -16.251,3.176 -1.245,-0.008 -2.083,-0.043 -2.905,0.056 -25.351,3.041 -50.783,4.991 -76.243,2.219 -9.816,-1.068 -19.923,-2.842 -29.004,-6.509 -14.289,-5.771 -18.53,-19.163 -11.882,-33.038 2.42,-5.05 5.523,-9.773 8.37,-14.743 -7.692,-5.599 -15.361,-11.18 -23.03,-16.762 2.342,6.328 5.227,12.025 8.345,17.591 1.609,2.871 2.44,5.712 0.003,8.265 -2.603,2.727 -5.767,2.184 -8.661,0.287 -10.586,-6.933 -21.197,-13.831 -31.647,-20.965 -3.152,-2.152 -5.672,-5.3 -2.728,-9.258 2.915,-3.918 6.332,-2.407 9.614,-0.11 4.205,2.942 8.479,5.784 12.723,8.669 0.288,-0.294 0.576,-0.588 0.863,-0.882 -4.092,-8.757 -8.184,-17.515 -12.362,-26.455 -1.425,1.005 -2.393,1.65 -3.321,2.348 -20.516,15.434 -40.303,31.712 -58.259,50.128 -1.166,1.196 -2.942,1.796 -4.434,2.673 -0.497,-1.607 -1.541,-3.264 -1.399,-4.813 0.755,-8.258 1.183,-16.619 2.861,-24.709 8.543,-41.191 24.551,-79.334 48.079,-114.524 2.864,-3.122 7.232,-5.389 5.895,-10.279 -2.223,-8.132 -4.855,-16.154 -7.598,-25.151 -4.994,0.986 -10.101,1.995 -15.645,3.106 -5.23,1.439 -10.144,2.447 -14.796,4.163 -21.974,8.106 -41.485,20.724 -60.781,33.688 -7.578,5.091 -7.512,5.188 -14.575,0.578 m 554.624,-30.826 c 4.957,-10.57 9.913,-21.14 14.87,-31.709 -7.992,4.735 -14.858,10.265 -22.326,14.804 -12.836,7.802 -26.045,14.991 -39.127,22.386 -0.22,0.124 -0.813,-0.411 -1.376,-1.376 -1.891,-4.171 -1.893,-8.263 0.071,-12.482 1.041,-2.237 1.582,-4.719 2.246,-7.119 9.033,-32.688 17.979,-65.401 27.105,-98.063 3.341,-11.959 3.532,-11.908 -7.07,-18.693 -21.552,-13.794 -45.034,-23.683 -68.44,-33.704 -48.507,-20.769 -99.134,-34.931 -150.134,-47.9 -1.336,-0.34 -2.8,-0.177 -4.148,-0.246 3.858,68.521 15.316,135.451 26.546,203.103 3.75,-3.747 5.759,-6.716 5.166,-11.488 -1.828,-14.701 -3.068,-29.474 -4.584,-44.214 -0.732,-7.118 -1.69,-14.215 -2.307,-21.342 -0.293,-3.393 0.755,-6.467 4.676,-7.131 3.368,-0.57 5.232,1.336 6.147,4.485 7.971,27.442 15.753,54.942 24.065,82.28 3.903,12.837 8.844,25.359 13.21,37.727 13.504,-1.047 26.419,-2.559 39.367,-2.936 20.142,-0.585 40.306,-0.452 60.461,-0.498 4.133,-0.009 6.712,2.267 6.357,6.596 -0.363,4.432 -3.443,5.613 -7.466,5.396 -5.147,-0.279 -10.302,-0.539 -15.455,-0.568 -20.494,-0.112 -40.989,-0.039 -61.481,-0.241 -6.347,-0.063 -12.688,-0.781 -20.115,-1.271 2.69,5.495 4.875,10.096 7.188,14.632 1.508,2.956 1.359,6.012 -1.488,7.398 -1.938,0.944 -5.974,0.985 -7.06,-0.288 -6.492,-7.604 -15.55,-10.298 -24.352,-12.97 -9.545,-2.897 -19.514,-4.399 -29.868,-6.632 0,2.73 -0.05,3.874 0.008,5.014 0.667,13.305 1.903,26.611 1.869,39.914 -0.031,12.283 -1.047,24.603 -2.368,36.827 -0.65,6.006 -3.201,11.962 -9.829,13.886 -6.297,1.828 -11.796,-1.162 -15.529,-5.808 -4.837,-6.019 -8.572,-12.914 -12.967,-19.303 -1.286,-1.87 -3.002,-4.217 -4.902,-4.642 -1.443,-0.322 -3.862,1.733 -5.202,3.287 -5.871,6.805 -11.484,13.832 -17.238,20.74 -2.674,3.21 -5.485,4.663 -9.913,2.397 -4.504,-2.305 -6.598,-0.264 -6.612,4.8 -0.018,6.476 0.096,13.044 -0.922,19.4 -1.26,7.869 -7.562,9.829 -13.533,4.661 -2.381,-2.06 -4.615,-4.365 -6.569,-6.832 -11.435,-14.438 -20.976,-30.046 -27.553,-47.274 -2.866,-7.507 -7.226,-13.738 -12.603,-19.532 -3.222,-3.472 -6.186,-4.776 -10.504,-0.731 -4.457,2.47 -8.913,4.939 -13.567,7.519 0.962,2.027 1.628,3.526 2.373,4.984 7.865,15.377 15.55,30.851 23.716,46.066 3.148,5.867 3.311,10.4 -1.284,15.732 -3.949,4.582 -7.028,10.084 -9.673,15.573 -3.012,6.249 -1.122,11.328 4.886,14.774 2.699,1.549 5.723,2.955 8.754,3.419 9.505,1.456 19.082,2.432 29.561,3.874 27.386,1.011 54.551,-1.412 81.533,-5.797 35.295,-5.735 69.61,-14.813 101.269,-32.047 18.202,-9.909 35.457,-21.102 48.529,-37.714 2.48,-3.152 3.015,-5.575 0.709,-9.102 -1.872,-2.862 -2.728,-6.389 -3.932,-10.326 1.013,-4.111 3.201,-1.381 4.233,-0.385 4.182,4.035 8.226,8.234 12.075,12.59 4.982,5.64 9.729,11.487 15.188,17.969 0.926,-6.649 2.086,-12.174 2.362,-17.743 0.29,-5.846 2.653,-8.973 9.059,-8.647 -2.489,-6.503 -4.8,-12.542 -7.256,-19.371 -2.579,-7.003 -5.073,-14.039 -7.775,-20.994 -1.177,-3.029 -0.447,-5.173 1.557,-7.673 10.175,-12.695 20.128,-25.566 30.76,-38.585 1.92,0.039 3.839,0.078 6.126,0.736 0.669,1.111 1.649,2.143 1.957,3.346 2.288,8.941 4.432,17.919 6.658,26.876 0.182,0.731 0.632,1.394 1.275,2.769 14.235,-16.011 25.251,-33.366 34.596,-52.583 M 65.813,315.904 c -3.146,-7.395 -6.292,-14.79 -9.825,-23.096 -25.366,36.496 -40.19,76.639 -51.965,118.665 7.627,-7.281 15.254,-14.561 23.506,-22.002 17.548,-13.573 35.096,-27.145 52.808,-40.845 -4.629,-10.259 -9.54,-21.142 -14.524,-32.722 M 40.535,158.001 c 2.71,-1.932 5.495,-3.767 8.118,-5.812 13.407,-10.451 28.409,-12.849 44.779,-9.37 23.631,5.023 44.842,15.662 65.17,28.163 38.421,23.626 73.368,51.843 106.878,81.907 1.253,1.124 2.572,2.174 4.39,3.704 0,-1.485 0.107,-1.987 -0.015,-2.425 -4.821,-17.259 -10.879,-34.279 -14.253,-51.815 -7.439,-38.66 -13.672,-77.556 -20.056,-116.412 -1.504,-9.152 -1.66,-18.526 -2.351,-28.546 0,-2.401 0,-4.802 0,-7.419 -55.033,10.368 -107.758,26.029 -158.602,47.556 -19.067,8.073 -37.109,18.577 -55.529,28.147 -1.433,0.744 -3.213,3.003 -3.039,4.323 1.899,14.447 4.155,28.847 6.409,43.894 6.164,-5.536 11.798,-10.594 18.101,-15.895 m 32.432,150.748 c 5.591,11.836 11.182,23.672 16.92,35.818 5.389,-3.059 10.243,-5.814 15.367,-8.722 -6.799,-7.925 -15.184,-14.077 -18.806,-23.987 1.805,0.393 3.255,1.127 4.508,2.111 5.893,4.629 11.979,9.056 17.501,14.098 3.382,3.087 5.901,3.174 9.989,1.207 41.463,-19.949 84.104,-36.11 130.647,-39.236 1.293,-0.087 3.089,-0.843 3.681,-1.854 3.926,-6.708 7.588,-13.57 11.491,-20.666 -11.276,-9.754 -21.851,-19.716 -33.267,-28.595 -19.397,-15.085 -39.324,-29.487 -59.178,-44.839 -23.031,-16.001 -46.954,-30.194 -74.244,-37.933 -16.814,-4.769 -32.241,-3.41 -45.877,8.501 -3.129,2.733 -6.852,4.863 -9.673,7.862 -10.815,11.503 -22.208,22.603 -31.838,35.05 -15.204,19.652 -29.162,40.268 -43.647,60.477 0.268,0.212 0.535,0.424 0.803,0.637 12.485,-6.302 24.969,-12.603 38.216,-18.823 13.281,-5.189 27.138,-7.989 41.281,-8.899 23.227,-1.493 46.175,1.227 68.98,5.557 3.948,0.75 6.225,2.651 5.952,6.543 -0.26,3.713 -2.848,5.135 -6.543,5.45 -4.599,0.392 -9.146,1.385 -14.449,2.196 -14.675,4.09 -26.347,12.946 -36.88,23.5 -0.811,0.812 -1.028,3.078 -0.513,4.209 3.012,6.619 6.324,13.101 9.579,20.338 m 163.028,7.717 c 2.672,-4.35 5.343,-8.7 8.636,-14.061 -43.599,4.538 -82.808,19.055 -121.637,37.835 20.963,16.335 41.165,31.952 63.599,44.1 9.928,-8.823 30.492,-37.091 49.402,-67.874 m 200.231,60.532 c 7.683,5.742 15.367,11.484 23.556,17.605 0,-1.468 0.115,-2.131 -0.016,-2.74 -5.711,-26.435 -11.462,-52.86 -17.134,-79.302 -0.403,-1.877 -0.369,-3.878 -0.311,-5.815 0.077,-2.596 0.374,-5.186 0.652,-8.735 -8.493,9.23 -15.87,17.535 -23.617,25.479 -2.126,2.182 -2.353,3.678 -1.372,6.408 4.988,13.884 9.671,27.878 14.59,41.788 0.626,1.772 2.009,3.276 3.652,5.312 M 252.813,325.536 c -0.292,-3.618 -0.584,-7.236 -0.929,-11.508 -9.054,13.909 -17.58,26.963 -26.024,40.069 -0.646,1.002 -1.347,2.666 -0.951,3.534 4.051,8.871 7.075,18.475 14.844,25.018 2.474,2.083 6.04,2.869 9.107,4.249 1.015,-2.891 2.818,-5.755 2.916,-8.677 0.577,-17.238 0.758,-34.489 1.037,-52.685 m 16.915,-43.278 c -1.307,2.408 -2.614,4.816 -3.651,6.727 13.813,3.236 27.224,6.379 40.702,9.537 -5.681,-16.054 -11.471,-32.415 -17.26,-48.776 -1.344,1.279 -1.686,2.366 -1.536,3.38 1.114,7.532 2.653,15.02 3.323,22.588 0.226,2.55 -0.974,6.005 -2.775,7.768 -2.47,2.417 -5.506,0.735 -7.954,-1.417 -2.313,-2.034 -4.79,-3.88 -7.378,-5.956 -1.191,2.059 -2.182,3.774 -3.471,6.149 m -126.078,96.41 c 7.123,12.628 15.266,24.459 26.461,34.198 0.376,-8.053 0.145,-15.807 -0.512,-23.525 -0.149,-1.761 -1.362,-3.951 -2.783,-4.998 -8.151,-6.008 -16.495,-11.756 -24.82,-17.525 -1.362,-0.944 -2.953,-1.558 -5.661,-2.955 2.753,5.654 4.831,9.921 7.315,14.805 m -41.69,14.676 c -5.365,-10.756 -10.73,-21.511 -16.224,-32.526 -4.908,3.217 -9.379,6.148 -14.137,9.267 11.44,10.905 22.232,21.192 33.023,31.479 0.328,-0.203 0.656,-0.405 0.984,-0.608 -1.106,-2.311 -2.213,-4.622 -3.646,-7.612 M 81.349,255.781 c -0.172,-0.735 -0.338,-2.113 -0.516,-2.115 -11.406,-0.101 -22.813,-0.091 -34.528,-0.091 3.339,6.724 6.693,13.478 9.823,19.781 8.313,-5.834 16.438,-11.536 25.221,-17.575 z"
           inkscape:connector-curvature="0"
           style="opacity:1;fill:#020707;stroke:none" />
        <path
           id="path4762"
           bx:origin="0.576 0.751"
           d="m 441.325,282.138 c -10.031,12.81 -19.984,25.681 -30.159,38.376 -2.004,2.5 -2.734,4.644 -1.557,7.673 2.702,6.955 5.196,13.991 7.443,21.362 -4.997,1.315 -7.455,4.344 -8.241,8.869 -0.805,4.631 -1.531,9.275 -2.407,14.616 -1.063,-1.252 -1.649,-1.811 -2.083,-2.471 -7.216,-10.985 -14.171,-22.152 -21.691,-32.924 -6.178,-8.848 -12.941,-17.295 -19.627,-25.776 -1.906,-2.418 -4.65,-4.262 -7.841,-2.187 -3.425,2.227 -2.624,5.502 -1.118,8.454 3.324,6.519 6.621,13.069 10.336,19.366 5.563,9.434 11.476,18.661 17.241,27.976 1.306,3.233 2.162,6.76 4.034,9.622 2.306,3.527 1.771,5.95 -0.709,9.102 -13.072,16.612 -30.327,27.805 -48.529,37.714 -31.659,17.234 -65.974,26.312 -101.269,32.047 -26.982,4.385 -54.147,6.808 -82.065,5.345 -3.617,-1.977 -6.832,-3.288 -9.766,-5.063 -15.072,-9.121 -16.431,-22.654 -3.594,-34.852 1.759,-1.672 3.56,-3.3 5.371,-4.975 -1.584,-2.442 -2.957,-4.519 -4.29,-6.621 -12.141,-19.155 -22.577,-39.198 -31.304,-60.131 3.667,-3.892 6.631,-2.588 9.853,0.884 5.377,5.794 9.737,12.025 12.603,19.532 6.577,17.228 16.118,32.836 27.553,47.274 1.954,2.467 4.188,4.772 6.569,6.832 5.971,5.168 12.273,3.208 13.533,-4.661 1.018,-6.356 0.904,-12.924 0.922,-19.4 0.014,-5.064 2.108,-7.105 6.612,-4.8 4.428,2.266 7.239,0.813 9.913,-2.397 5.754,-6.908 11.367,-13.935 17.238,-20.74 1.34,-1.554 3.759,-3.609 5.202,-3.287 1.9,0.425 3.616,2.772 4.902,4.642 4.395,6.389 8.13,13.284 12.967,19.303 3.733,4.646 9.232,7.636 15.529,5.808 6.628,-1.924 9.179,-7.88 9.829,-13.886 1.321,-12.224 2.337,-24.544 2.368,-36.827 0.034,-13.303 -1.202,-26.609 -1.869,-39.914 -0.058,-1.14 -0.008,-2.284 -0.008,-5.014 10.354,2.233 20.323,3.735 29.868,6.632 8.802,2.672 17.86,5.366 24.352,12.97 1.086,1.273 5.122,1.232 7.06,0.288 2.847,-1.386 2.996,-4.442 1.488,-7.398 -2.313,-4.536 -4.498,-9.137 -7.188,-14.632 7.427,0.49 13.768,1.208 20.115,1.271 20.492,0.202 40.987,0.129 61.481,0.241 5.153,0.029 10.308,0.289 15.455,0.568 4.023,0.217 7.103,-0.964 7.466,-5.396 0.355,-4.329 -2.224,-6.605 -6.357,-6.596 -20.155,0.046 -40.319,-0.087 -60.461,0.498 -12.948,0.377 -25.863,1.889 -39.367,2.936 -4.366,-12.368 -9.307,-24.89 -13.21,-37.727 -8.312,-27.338 -16.094,-54.838 -24.065,-82.28 -0.915,-3.149 -2.779,-5.055 -6.147,-4.485 -3.921,0.664 -4.969,3.738 -4.676,7.131 0.617,7.127 1.575,14.224 2.307,21.342 1.516,14.74 2.756,29.513 4.584,44.214 0.593,4.772 -1.416,7.741 -5.166,11.488 -11.23,-67.652 -22.688,-134.582 -26.546,-203.103 1.348,0.069 2.812,-0.094 4.148,0.246 51,12.969 101.627,27.131 150.134,47.9 23.406,10.021 46.888,19.91 68.44,33.704 10.602,6.785 10.411,6.734 7.07,18.693 -9.126,32.662 -18.072,65.375 -27.105,98.063 -0.664,2.4 -1.205,4.882 -2.246,7.119 -1.964,4.219 -1.962,8.311 -0.268,13.092 -1.151,5.19 -2.104,9.77 -3.057,14.35 M 279.64,420.146 c -12.943,10.417 -25.673,21.269 -44.18,20.83 1.485,4.459 4.864,4.856 7.809,4.393 5.543,-0.87 11.218,-1.851 16.397,-3.902 14.128,-5.595 26.026,-14.621 36.64,-25.418 1.468,-1.493 3.186,-2.991 5.083,-3.77 13.053,-5.358 26.438,-9.981 39.203,-15.94 8.801,-4.109 17.605,-9.015 24.938,-15.284 11.74,-10.036 9.891,-22.426 -3.947,-29.032 -8.785,-4.193 -18.207,-7.294 -27.622,-9.859 -11.256,-3.067 -10.983,-2.495 -13.693,8.672 -6.52,26.868 -20.309,49.633 -40.628,69.31 z"
           inkscape:connector-curvature="0"
           style="opacity:1;fill:#0ddefe;stroke:none" />
        <path
           id="path4764"
           bx:origin="1.217 1.08"
           d="m 171.97,194.746 c 19.704,14.69 39.631,29.092 59.028,44.177 11.416,8.879 21.991,18.841 33.267,28.595 -3.903,7.096 -7.565,13.958 -11.491,20.666 -0.592,1.011 -2.388,1.767 -3.681,1.854 -46.543,3.126 -89.184,19.287 -130.647,39.236 -4.088,1.967 -6.607,1.88 -9.989,-1.207 -5.522,-5.042 -11.608,-9.469 -17.501,-14.098 -1.253,-0.984 -2.703,-1.718 -4.508,-2.111 3.622,9.91 12.007,16.062 18.806,23.987 -5.124,2.908 -9.978,5.663 -15.367,8.722 -5.738,-12.146 -11.329,-23.982 -16.607,-36.244 1.917,-1.862 3.589,-3.23 5.113,-4.746 11.49,-11.443 24.282,-21.215 38.212,-29.467 5.764,-3.415 11.804,-6.363 17.719,-9.524 -0.047,-0.35 -0.093,-0.7 -0.14,-1.05 -10.89,-0.97 -21.78,-1.941 -32.67,-2.912 4.57,-0.733 9.117,-1.726 13.716,-2.118 3.695,-0.315 6.283,-1.737 6.543,-5.45 0.273,-3.892 -2.004,-5.793 -5.952,-6.543 -22.805,-4.33 -45.753,-7.05 -68.98,-5.557 -14.143,0.91 -28,3.71 -41.819,8.546 -0.161,-2.572 -0.35,-5.117 0.706,-6.944 2.559,-4.431 5.236,-8.952 8.679,-12.687 16.993,-18.437 37.828,-31.159 61.119,-40.054 12.997,-4.964 26.518,-8.732 40.35,-7.415 13.451,1.28 26.713,4.752 39.99,7.579 5.459,1.162 10.742,3.152 16.104,4.765 z"
           inkscape:connector-curvature="0"
           style="opacity:1;fill:#0ddffe;stroke:none" />
        <path
           id="path4766"
           bx:origin="1.216 1.509"
           d="m 233.11,58.142 c 0.776,9.273 0.932,18.647 2.436,27.799 6.384,38.856 12.617,77.752 20.056,116.412 3.374,17.536 9.432,34.556 14.253,51.815 0.122,0.438 0.015,0.94 0.015,2.425 -1.818,-1.53 -3.137,-2.58 -4.39,-3.704 -33.51,-30.064 -68.457,-58.281 -106.878,-81.907 -20.328,-12.501 -41.539,-23.14 -65.17,-28.163 -16.37,-3.479 -31.372,-1.081 -44.779,9.37 -2.623,2.045 -5.408,3.88 -8.52,5.536 -1.13,-2.647 -1.382,-5.32 -2.666,-7.336 -5.727,-8.993 -2.155,-17.122 5.642,-21.603 4.601,-2.644 9.438,-4.901 14.267,-7.119 28.112,-12.917 56.199,-26.072 86.743,-32.277 26.187,-5.321 52.541,-9.838 78.858,-14.499 7.609,-1.347 8.731,-2.265 9.048,-10.001 0.093,-2.261 0.709,-4.499 1.085,-6.748 z"
           inkscape:connector-curvature="0"
           style="opacity:1;fill:#0ddffe;stroke:none" />
        <path
           id="path4768"
           bx:origin="0.395 -0.221"
           d="m 473.199,414.072 c -6.664,42.305 -34.892,77.499 -77.481,89.927 -28.02,8.177 -56.145,7.013 -84.293,0.952 -32.085,-6.909 -61.919,-19.508 -90.354,-36.357 5.052,-1.311 10.304,-2.54 15.611,-3.444 35.199,-5.99 69.54,-14.839 101.324,-31.609 17.187,-9.068 33.623,-19.419 47.113,-33.714 3.379,-3.581 6.223,-7.666 9.915,-12.27 5.919,7.503 11.616,14.965 17.622,22.169 1.475,1.768 4.69,4.216 5.818,3.674 2.035,-0.978 3.937,-3.81 4.405,-6.164 1.192,-5.999 1.518,-12.165 2.277,-18.254 0.529,-4.241 1.942,-4.844 5.326,-2.333 11.415,8.467 22.716,17.093 34.302,25.319 2.109,1.497 5.351,1.397 8.415,2.104 z"
           inkscape:connector-curvature="0"
           style="opacity:1;fill:#01fe9a;stroke:none" />
        <path
           id="path4770"
           bx:origin="1.342 1.886"
           d="M 7.295,191.78 C 4.933,181.113 2.263,170.452 1.009,159.627 -1.298,139.727 -1.073,119.81 2.784,100.008 12.461,50.323 45.875,15.092 96.567,6.761 c 35.463,-5.829 69.53,0.434 102.728,12.496 13.378,4.861 26.17,11.335 39.436,17.353 -14.343,3.516 -29.072,6.114 -43.403,10.129 -29.439,8.249 -59.056,16.146 -87.859,26.29 -24.987,8.799 -49.117,20.134 -73.284,31.102 -8.963,4.068 -16.904,10.361 -25.409,15.476 -3.536,2.126 -4.749,5.187 -3.856,8.861 3.961,16.294 8.153,32.532 12.14,48.82 0.345,1.41 0.354,3.482 -0.441,4.485 -2.769,3.494 -5.962,6.653 -9.324,10.007 z"
           inkscape:connector-curvature="0"
           style="opacity:1;fill:#01fd9a;stroke:none" />
        <path
           id="path4772"
           bx:origin="1.724 1.772"
           d="m 171.895,194.415 c -5.287,-1.282 -10.57,-3.272 -16.029,-4.434 -13.277,-2.827 -26.539,-6.299 -39.99,-7.579 -13.832,-1.317 -27.353,2.451 -40.35,7.415 -23.291,8.895 -44.126,21.617 -61.119,40.054 -3.443,3.735 -6.12,8.256 -8.679,12.687 -1.056,1.827 -0.867,4.372 -1.087,6.903 -12.328,6.614 -24.812,12.915 -37.297,19.217 -0.268,-0.213 -0.535,-0.425 -0.803,-0.637 14.485,-20.209 28.443,-40.825 43.647,-60.477 9.63,-12.447 21.023,-23.547 31.838,-35.05 2.821,-2.999 6.544,-5.129 9.673,-7.862 13.636,-11.911 29.063,-13.27 45.877,-8.501 27.29,7.739 51.213,21.932 74.319,38.264 z"
           inkscape:connector-curvature="0"
           style="opacity:1;fill:#b3f5f5;stroke:none" />
        <path
           id="path4774"
           bx:origin="1.625 0.673"
           d="m 235.823,316.785 c -18.738,30.464 -39.302,58.732 -49.23,67.555 -22.434,-12.148 -42.636,-27.765 -63.599,-44.1 38.829,-18.78 78.038,-33.297 121.637,-37.835 -3.293,5.361 -5.964,9.711 -8.808,14.38 z"
           inkscape:connector-curvature="0"
           style="opacity:1;fill:#0dddfd;stroke:none" />
        <path
           id="path4776"
           bx:origin="1.403 2.482"
           d="m 233.153,57.769 c -0.419,2.622 -1.035,4.86 -1.128,7.121 -0.317,7.736 -1.439,8.654 -9.048,10.001 -26.317,4.661 -52.671,9.178 -78.858,14.499 -30.544,6.205 -58.631,19.36 -86.743,32.277 -4.829,2.218 -9.666,4.475 -14.267,7.119 -7.797,4.481 -11.369,12.61 -5.642,21.603 1.284,2.016 1.536,4.689 2.33,7.457 -5.565,5.456 -11.199,10.514 -17.363,16.05 -2.254,-15.047 -4.51,-29.447 -6.409,-43.894 -0.174,-1.32 1.606,-3.579 3.039,-4.323 18.42,-9.57 36.462,-20.074 55.529,-28.147 50.844,-21.527 103.569,-37.188 158.602,-47.556 0,2.617 0,5.018 -0.042,7.793 z"
           inkscape:connector-curvature="0"
           style="opacity:1;fill:#b2f5f5;stroke:none" />
        <path
           id="path4778"
           bx:origin="3.93 0.088"
           d="m 109.174,347.737 c 9.053,20.856 19.489,40.899 31.63,60.054 1.333,2.102 2.706,4.179 4.29,6.621 -1.811,1.675 -3.612,3.303 -5.371,4.975 -12.837,12.198 -11.478,25.731 3.594,34.852 2.934,1.775 6.149,3.086 9.302,4.923 -9.483,-0.85 -19.06,-1.826 -28.565,-3.282 -3.031,-0.464 -6.055,-1.87 -8.754,-3.419 -6.008,-3.446 -7.898,-8.525 -4.886,-14.774 2.645,-5.489 5.724,-10.991 9.673,-15.573 4.595,-5.332 4.432,-9.865 1.284,-15.732 -8.166,-15.215 -15.851,-30.689 -23.716,-46.066 -0.745,-1.458 -1.411,-2.957 -2.373,-4.984 4.654,-2.58 9.11,-5.049 13.892,-7.595 z"
           inkscape:connector-curvature="0"
           style="opacity:1;fill:#b2f5f5;stroke:none" />
        <path
           id="path4780"
           bx:origin="-2.283 0.617"
           d="m 435.92,376.794 c -1.337,-1.832 -2.72,-3.336 -3.346,-5.108 -4.919,-13.91 -9.602,-27.904 -14.59,-41.788 -0.981,-2.73 -0.754,-4.226 1.372,-6.408 7.747,-7.944 15.124,-16.249 23.617,-25.479 -0.278,3.549 -0.575,6.139 -0.652,8.735 -0.058,1.937 -0.092,3.938 0.311,5.815 5.672,26.442 11.423,52.867 17.134,79.302 0.131,0.609 0.016,1.272 0.016,2.74 -8.189,-6.121 -15.873,-11.863 -23.862,-17.809 z"
           inkscape:connector-curvature="0"
           style="opacity:1;fill:#0ddbfb;stroke:none" />
        <path
           id="path4782"
           bx:origin="5.143 0.546"
           d="m 26.905,389.631 c -7.628,7.281 -15.255,14.561 -22.882,21.842 11.775,-42.026 26.599,-82.169 51.965,-118.665 3.533,8.306 6.679,15.701 9.594,23.67 -15.547,17.987 -29.009,36.614 -36.679,58.755 -1.556,4.491 -1.377,9.583 -1.998,14.398 z"
           inkscape:connector-curvature="0"
           style="opacity:1;fill:#b0f4f4;stroke:none" />
        <path
           id="path4784"
           bx:origin="-0.447 0.566"
           d="m 381.672,365.12 c -5.816,-8.963 -11.729,-18.19 -17.292,-27.624 -3.715,-6.297 -7.012,-12.847 -10.336,-19.366 -1.506,-2.952 -2.307,-6.227 1.118,-8.454 3.191,-2.075 5.935,-0.231 7.841,2.187 6.686,8.481 13.449,16.928 19.627,25.776 7.52,10.772 14.475,21.939 21.691,32.924 0.434,0.66 1.02,1.219 2.083,2.471 0.876,-5.341 1.602,-9.985 2.407,-14.616 0.786,-4.525 3.244,-7.554 8.313,-8.474 2.716,6.066 5.027,12.105 7.516,18.608 -6.406,-0.326 -8.769,2.801 -9.059,8.647 -0.276,5.569 -1.436,11.094 -2.362,17.743 -5.459,-6.482 -10.206,-12.329 -15.188,-17.969 -3.849,-4.356 -7.893,-8.555 -12.075,-12.59 -1.032,-0.996 -3.22,-3.726 -4.284,0.737 z"
           inkscape:connector-curvature="0"
           style="opacity:1;fill:#b1f5f5;stroke:none" />
        <path
           id="path4786"
           bx:origin="5.524 0.56"
           d="m 27.217,389.551 c 0.309,-4.735 0.13,-9.827 1.686,-14.318 7.67,-22.141 21.132,-40.768 36.715,-58.407 5.179,10.658 10.09,21.541 14.719,31.8 -17.712,13.7 -35.26,27.272 -53.12,40.925 z"
           inkscape:connector-curvature="0"
           style="opacity:1;fill:#0edefd;stroke:none" />
        <path
           id="path4788"
           bx:origin="3.616 2.049"
           d="m 101.147,260.663 c 11.257,0.932 22.147,1.903 33.037,2.873 0.047,0.35 0.093,0.7 0.14,1.05 -5.915,3.161 -11.955,6.109 -17.719,9.524 -13.93,8.252 -26.722,18.024 -38.212,29.467 -1.524,1.516 -3.196,2.884 -5.135,4.391 -3.546,-6.456 -6.858,-12.938 -9.87,-19.557 -0.515,-1.131 -0.298,-3.397 0.513,-4.209 10.533,-10.554 22.205,-19.41 37.246,-23.539 z"
           inkscape:connector-curvature="0"
           style="opacity:1;fill:#b3f6f6;stroke:none" />
        <path
           id="path4790"
           bx:origin="3.418 0.598"
           d="m 252.831,326.01 c -0.297,17.722 -0.478,34.973 -1.055,52.211 -0.098,2.922 -1.901,5.786 -2.916,8.677 -3.067,-1.38 -6.633,-2.166 -9.107,-4.249 -7.769,-6.543 -10.793,-16.147 -14.844,-25.018 -0.396,-0.868 0.305,-2.532 0.951,-3.534 8.444,-13.106 16.97,-26.16 26.024,-40.069 0.345,4.272 0.637,7.89 0.947,11.982 z"
           inkscape:connector-curvature="0"
           style="opacity:1;fill:#f3fcfc;stroke:none" />
        <path
           id="path4792"
           bx:origin="-1.839 2.49"
           d="m 441.625,282.034 c 0.653,-4.476 1.606,-9.056 2.828,-13.877 0.689,-0.014 1.282,0.521 1.502,0.397 13.082,-7.395 26.291,-14.584 39.127,-22.386 7.468,-4.539 14.334,-10.069 22.326,-14.804 -4.957,10.569 -9.913,21.139 -15.482,32.062 -14.252,5.793 -27.898,11.217 -41.519,16.704 -1.002,0.404 -1.819,1.267 -2.722,1.917 -1.92,-0.04 -3.839,-0.079 -6.06,-0.013 z"
           inkscape:connector-curvature="0"
           style="opacity:1;fill:#b0f4f4;stroke:none" />
        <path
           id="path4794"
           bx:origin="-2.904 1.806"
           d="m 447.868,282.356 c 0.72,-0.959 1.537,-1.822 2.539,-2.226 13.621,-5.487 27.267,-10.911 41.273,-16.492 -8.487,18.652 -19.503,36.007 -33.738,52.018 -0.643,-1.375 -1.093,-2.038 -1.275,-2.769 -2.226,-8.957 -4.37,-17.935 -6.658,-26.876 -0.308,-1.203 -1.288,-2.235 -2.141,-3.655 z"
           inkscape:connector-curvature="0"
           style="opacity:1;fill:#0edcfc;stroke:none" />
        <path
           id="path4796"
           bx:origin="-7.685 0.447"
           d="m 469.345,320.172 c 2.629,14.837 5.857,29.643 6.987,44.606 0.967,12.808 -0.47,25.798 -1.139,39.015 -1.559,-3.506 -3.188,-7.241 -4.025,-11.146 -4.139,-19.311 -8.009,-38.68 -12.141,-57.993 -0.575,-2.685 -0.643,-4.597 1.718,-6.514 2.958,-2.403 5.543,-5.267 8.6,-7.968 z"
           inkscape:connector-curvature="0"
           style="opacity:1;fill:#02fb96;stroke:none" />
        <path
           id="path4798"
           bx:origin="1.34 2.211"
           d="m 269.877,281.927 c 1.14,-2.044 2.131,-3.759 3.322,-5.818 2.588,2.076 5.065,3.922 7.378,5.956 2.448,2.152 5.484,3.834 7.954,1.417 1.801,-1.763 3.001,-5.218 2.775,-7.768 -0.67,-7.568 -2.209,-15.056 -3.323,-22.588 -0.15,-1.014 0.192,-2.101 1.536,-3.38 5.789,16.361 11.579,32.722 17.26,48.776 -13.478,-3.158 -26.889,-6.301 -40.702,-9.537 1.037,-1.911 2.344,-4.319 3.8,-7.058 z"
           inkscape:connector-curvature="0"
           style="opacity:1;fill:#0cd5f6;stroke:none" />
        <path
           id="path4800"
           bx:origin="5.428 -0.128"
           d="m 143.447,378.36 c -2.281,-4.576 -4.359,-8.843 -7.112,-14.497 2.708,1.397 4.299,2.011 5.661,2.955 8.325,5.769 16.669,11.517 24.82,17.525 1.421,1.047 2.634,3.237 2.783,4.998 0.657,7.718 0.888,15.472 0.512,23.525 -11.195,-9.739 -19.338,-21.57 -26.664,-34.506 z"
           inkscape:connector-curvature="0"
           style="opacity:1;fill:#ecfafa;stroke:none" />
        <path
           id="path4802"
           bx:origin="12.706 2.97"
           d="M 45.414,287.794 C 39.606,277.269 34.122,266.66 28.57,255.709 c 5.04,-1.35 10.147,-2.359 15.141,-3.345 2.743,8.997 5.375,17.019 7.598,25.151 1.337,4.89 -3.031,7.157 -5.895,10.279 z"
           inkscape:connector-curvature="0"
           style="opacity:1;fill:#03fb95;stroke:none" />
        <path
           id="path4804"
           bx:origin="7.323 -0.079"
           d="m 102.123,393.684 c 1.27,2.65 2.377,4.961 3.483,7.272 -0.328,0.203 -0.656,0.405 -0.984,0.608 -10.791,-10.287 -21.583,-20.574 -33.023,-31.479 4.758,-3.119 9.229,-6.05 14.137,-9.267 5.494,11.015 10.859,21.77 16.387,32.866 z"
           inkscape:connector-curvature="0"
           style="opacity:1;fill:#0cd5f7;stroke:none" />
        <path
           id="path4806"
           bx:origin="7.888 5.258"
           d="m 81.02,255.949 c -8.454,5.871 -16.579,11.573 -24.892,17.407 -3.13,-6.303 -6.484,-13.057 -9.823,-19.781 11.715,0 23.122,-0.01 34.528,0.091 0.178,0.002 0.344,1.38 0.187,2.283 z"
           inkscape:connector-curvature="0"
           style="opacity:1;fill:#0cd7f9;stroke:none" />
        <path
           id="path4808"
           bx:origin="0.618 0.162"
           d="m 279.905,419.911 c 20.054,-19.442 33.843,-42.207 40.363,-69.075 2.71,-11.167 2.437,-11.739 13.693,-8.672 9.415,2.565 18.837,5.666 27.622,9.859 13.838,6.606 15.687,18.996 3.947,29.032 -7.333,6.269 -16.137,11.175 -24.938,15.284 -12.765,5.959 -26.15,10.582 -39.203,15.94 -1.897,0.779 -3.615,2.277 -5.083,3.77 -10.614,10.797 -22.512,19.823 -36.64,25.418 -5.179,2.051 -10.854,3.032 -16.397,3.902 -2.945,0.463 -6.324,0.066 -7.809,-4.393 18.507,0.439 31.237,-10.413 44.445,-21.065 m 43.436,-45.178 c -4.576,8.551 -9.152,17.101 -14.161,26.461 12.137,-5.618 23.634,-10.94 35.13,-16.262 -0.091,-0.398 -0.181,-0.796 -0.271,-1.195 -4.941,-0.239 -9.881,-0.479 -14.821,-0.718 8.185,-5.146 17,-7.324 26.108,-7.855 6.143,-0.359 9.778,-4.696 8.121,-11.222 -7.428,0.491 -14.902,0.986 -22.376,1.48 -0.228,-0.682 -0.455,-1.363 -0.683,-2.045 3.734,-2.225 7.469,-4.451 11.855,-7.064 -7.584,-2.434 -14.601,-4.686 -21.141,-6.785 -2.633,8.669 -5.038,16.586 -7.761,25.205 z"
           inkscape:connector-curvature="0"
           style="opacity:1;fill:#01080a;stroke:none" />
        <path
           id="path4810"
           bx:origin="0.21 0.156"
           d="m 323.5,374.382 c 2.564,-8.268 4.969,-16.185 7.602,-24.854 6.54,2.099 13.557,4.351 21.141,6.785 -4.386,2.613 -8.121,4.839 -11.855,7.064 0.228,0.682 0.455,1.363 0.683,2.045 7.474,-0.494 14.948,-0.989 22.376,-1.48 1.657,6.526 -1.978,10.863 -8.121,11.222 -9.108,0.531 -17.923,2.709 -26.108,7.855 4.94,0.239 9.88,0.479 14.821,0.718 0.09,0.399 0.18,0.797 0.271,1.195 -11.496,5.322 -22.993,10.644 -35.13,16.262 5.009,-9.36 9.585,-17.91 14.32,-26.812 z"
           inkscape:connector-curvature="0"
           style="opacity:1;fill:#a9efef;stroke:none" />
      </g>
    </g>
  </g>
</svg>
